<?xml version="1.0" encoding="UTF-8" standalone="no"?>
<!-- Created with Inkscape (http://www.inkscape.org/) -->

<svg
   width="120"
   height="120"
   viewBox="0 0 120 120"
   version="1.1"
   id="svg5"
   xml:space="preserve"
   inkscape:export-filename="logo.svg"
   inkscape:export-xdpi="96"
   inkscape:export-ydpi="96"
   xmlns:inkscape="http://www.inkscape.org/namespaces/inkscape"
   xmlns:sodipodi="http://sodipodi.sourceforge.net/DTD/sodipodi-0.dtd"
   xmlns="http://www.w3.org/2000/svg"
   xmlns:svg="http://www.w3.org/2000/svg"><sodipodi:namedview
     id="namedview7"
     pagecolor="#ffffff"
     bordercolor="#000000"
     borderopacity="0.25"
     inkscape:showpageshadow="2"
     inkscape:pageopacity="0.0"
     inkscape:pagecheckerboard="0"
     inkscape:deskcolor="#d1d1d1"
     inkscape:document-units="px"
     showgrid="false" /><defs
     id="defs2" /><g
     inkscape:label="Layer 1"
     inkscape:groupmode="layer"
     id="layer1"><path
       style="fill:#ffffff;stroke-width:0.181818"
       d="m 66.408365,105.70067 c -1.897329,-2.14155 -3.706156,-4.18008 -4.019616,-4.53008 -0.620386,-0.6927 -6.160509,-6.931674 -8.01602,-9.027184 L 53.22169,90.843486 V 77.360996 63.878491 L 40.358054,63.996193 C 23.274869,64.152502 19.971014,63.969085 16.288764,62.659965 12.358726,61.262754 9.0425736,58.751085 6.8340965,55.498958 5.3034804,53.245025 3.9772121,49.751934 3.5748334,46.914796 3.331167,45.196725 3.319111,33.664842 3.5598945,32.625145 5.2772347,25.209716 10.309176,19.883059 17.79347,17.557924 c 0.935522,-0.290636 2.06913,-0.631771 2.51913,-0.758076 0.602072,-0.168989 3.555561,-0.24642 11.181818,-0.293153 l 10.363636,-0.06351 6.909091,7.941662 c 3.8,4.367913 8.995455,10.328533 11.545455,13.24582 2.55,2.917287 5.802272,6.639385 7.227272,8.271329 l 2.590909,2.967171 0.0011,5.650716 c 5.46e-4,3.169746 0.08008,5.935329 0.181095,6.29896 0.276163,0.99412 1.284731,2.029437 2.655045,2.725462 l 1.233033,0.626293 4.580431,0.09091 4.580433,0.09091 1.590054,1.818182 c 2.448804,2.800134 3.279077,3.750854 6.271957,7.181818 1.52655,1.75 3.25631,3.724584 3.84391,4.387968 0.5876,0.66337 1.236739,1.42019 1.442528,1.68181 l 0.374165,0.47568 H 83.417845 69.951165 l -0.04652,14.84826 -0.04652,14.848244 -3.449689,-3.89371 z M 53.360025,40.55524 c 0.03409,-5.605209 -0.01049,-7.866973 -0.158627,-8.045455 -0.287238,-0.346101 -28.154458,-0.362649 -29.467008,-0.01749 -1.667618,0.438524 -3.302812,2.071479 -3.938107,3.932715 -0.130982,0.383733 -0.210956,1.927973 -0.210956,4.07336 0,3.336549 0.01613,3.4894 0.468949,4.446604 0.570249,1.205407 1.764713,2.436432 2.934394,3.02422 l 0.869384,0.43688 14.727273,-0.02683 14.727273,-0.02683 z m 48.995935,33.004693 c -3.026142,-3.478886 -5.644324,-6.483259 -5.818175,-6.676382 -0.173853,-0.193126 -0.75158,-0.859602 -1.283838,-1.481058 l -0.967744,-1.129922 2.33138,-0.05099 2.33138,-0.05098 0.04847,-4.772727 0.04847,-4.772728 h -6.870842 -6.870849 l -1.586714,-1.801978 -1.586717,-1.80198 V 46.55044 42.079691 h 16.636364 16.636365 v 18.909091 18.909094 l -3.77273,-0.006 -3.77273,-0.006 -5.50209,-6.325251 z M 65.544385,31.662331 c -0.952536,-1.120453 -2.007998,-2.357758 -2.345471,-2.749567 -0.337473,-0.391811 -2.88208,-3.35772 -5.654682,-6.59091 L 52.50314,16.443327 h 29.359274 29.359276 v 8 8 H 90.618327 c -22.105395,0 -21.726104,-0.01493 -22.889797,0.90044 l -0.452261,0.355749 z"
       id="path241" /></g></svg>
