<svg xmlns="http://www.w3.org/2000/svg" width="1em" height="1em" preserveAspectRatio="xMidYMid meet"
    viewBox="0 0 24 24">
    <style>
        path {
        fill: rgba(255, 0, 0, 0.75);
        }
    </style>
    <rect x="0" y="0" width="24" height="24" fill="none" stroke="none" />
    <path fill="#fff"
        d="M9.5 9.325v5.35q0 .575.525.875q.525.3 1.025-.05l4.15-2.65q.475-.3.475-.85t-.475-.85L11.05 8.5q-.5-.35-1.025-.05q-.525.3-.525.875ZM12 22q-2.075 0-3.9-.788q-1.825-.787-3.175-2.137q-1.35-1.35-2.137-3.175Q2 14.075 2 12t.788-3.9q.787-1.825 2.137-3.175q1.35-1.35 3.175-2.138Q9.925 2 12 2t3.9.787q1.825.788 3.175 2.138q1.35 1.35 2.137 3.175Q22 9.925 22 12t-.788 3.9q-.787 1.825-2.137 3.175q-1.35 1.35-3.175 2.137Q14.075 22 12 22Z" />
</svg>